<svg width="19" height="23" viewBox="0 0 19 23" fill="none" xmlns="http://www.w3.org/2000/svg">
<path d="M18.0623 5.58792L12.6718 0.197432C12.546 0.0715605 12.3743 0 12.1953 0H2.76172C1.64707 0 0.740234 0.906838 0.740234 2.02148V20.9785C0.740234 22.0932 1.64707 23 2.76172 23H16.2383C17.3529 23 18.2598 22.0932 18.2598 20.9785V6.06445C18.2598 5.88072 18.1826 5.70818 18.0623 5.58792ZM12.8691 2.30058L15.9592 5.39062H13.543C13.1714 5.39062 12.8691 5.08835 12.8691 4.7168V2.30058ZM16.2383 21.6523H2.76172C2.39017 21.6523 2.08789 21.3501 2.08789 20.9785V2.02148C2.08789 1.64994 2.39017 1.34766 2.76172 1.34766H11.5215V4.7168C11.5215 5.83144 12.4283 6.73828 13.543 6.73828H16.9121V20.9785C16.9121 21.3501 16.6098 21.6523 16.2383 21.6523Z" fill="black"/>
<path d="M13.543 9.52344H5.45703C5.0849 9.52344 4.7832 9.82513 4.7832 10.1973C4.7832 10.5694 5.0849 10.8711 5.45703 10.8711H13.543C13.9151 10.8711 14.2168 10.5694 14.2168 10.1973C14.2168 9.82513 13.9151 9.52344 13.543 9.52344Z" fill="black"/>
<path d="M13.543 12.2188H5.45703C5.0849 12.2188 4.7832 12.5204 4.7832 12.8926C4.7832 13.2647 5.0849 13.5664 5.45703 13.5664H13.543C13.9151 13.5664 14.2168 13.2647 14.2168 12.8926C14.2168 12.5204 13.9151 12.2188 13.543 12.2188Z" fill="black"/>
<path d="M13.543 14.9141H5.45703C5.0849 14.9141 4.7832 15.2158 4.7832 15.5879C4.7832 15.96 5.0849 16.2617 5.45703 16.2617H13.543C13.9151 16.2617 14.2168 15.96 14.2168 15.5879C14.2168 15.2158 13.9151 14.9141 13.543 14.9141Z" fill="black"/>
<path d="M10.8477 17.6094H5.45703C5.0849 17.6094 4.7832 17.9111 4.7832 18.2832C4.7832 18.6553 5.0849 18.957 5.45703 18.957H10.8477C11.2198 18.957 11.5215 18.6553 11.5215 18.2832C11.5215 17.9111 11.2198 17.6094 10.8477 17.6094Z" fill="black"/>
</svg>
