<svg width="28" height="32" viewBox="0 0 28 32" fill="none" xmlns="http://www.w3.org/2000/svg">
<path d="M22.7193 19.1429C22.3523 18.7758 22.1226 18.2896 22.0725 17.7737C22.0707 17.7552 22.0842 17.8689 21.8883 16.2409C24.9257 15.5026 27.1878 12.7603 27.1878 9.49904C27.1878 5.16954 23.2423 1.8757 18.9633 2.6813C16.1665 -0.596286 11.3376 -0.926801 8.1686 2.00914C6.78392 3.29189 5.91988 5.0274 5.73481 6.89705C4.36731 18.2657 4.42856 17.7559 4.42675 17.7737C4.37662 18.2896 4.14692 18.7758 3.78003 19.1428L2.01808 20.9047C1.24004 21.6827 0.811523 22.7172 0.811523 23.8177C0.811523 26.0892 2.65954 27.9372 4.93108 27.9372H8.40024C8.82945 30.2047 10.8172 31.9999 13.2496 31.9999C15.6805 31.9999 17.6695 30.2058 18.0989 27.9372H21.568C23.8396 27.9372 25.6876 26.0892 25.6876 23.8177C25.6876 22.7172 25.2591 21.6827 24.481 20.9047L22.7193 19.1429ZM25.3126 9.49898C25.3126 12.2905 23.0415 14.5617 20.2499 14.5617C17.4583 14.5617 15.1872 12.2905 15.1872 9.49898C15.1872 6.70742 17.4583 4.43625 20.2499 4.43625C23.0415 4.43625 25.3126 6.70742 25.3126 9.49898ZM13.2496 30.1249C11.8808 30.1249 10.7192 29.2039 10.328 27.9373H16.1712C15.7801 29.2039 14.6183 30.1249 13.2496 30.1249ZM21.5681 26.0622H4.93108C3.69347 26.0622 2.68661 25.0554 2.68661 23.8177C2.68661 23.2181 2.92006 22.6544 3.34395 22.2306L5.10597 20.4687C5.77681 19.7977 6.1977 18.9094 6.29196 17.9662C7.65289 6.65179 7.5982 7.10769 7.59995 7.08993C7.88534 4.16487 10.367 1.87364 13.2496 1.87364C14.6351 1.87364 15.9778 2.41535 17.0178 3.3617C14.8161 4.52594 13.3121 6.83992 13.3121 9.49898C13.3121 13.2485 16.3021 16.3123 20.0228 16.4327L20.2073 17.9662C20.3016 18.9094 20.7225 19.7978 21.3934 20.4687L23.1553 22.2306C23.5792 22.6544 23.8127 23.2181 23.8127 23.8177C23.8126 25.0554 22.8057 26.0622 21.5681 26.0622Z" fill="white"/>
</svg>
