<svg width="29" height="35" viewBox="0 0 29 35" fill="none" xmlns="http://www.w3.org/2000/svg">
<path d="M7.05732 22.5177C7.05732 21.9365 6.654 21.5898 5.94237 21.5898C5.65179 21.5898 5.45499 21.6185 5.35205 21.646V23.5109C5.47393 23.5383 5.62376 23.5475 5.83029 23.5475C6.58881 23.5475 7.05732 23.1642 7.05732 22.5177Z" fill="#4E689A"/>
<path d="M11.4624 21.6094C11.1437 21.6094 10.9377 21.6369 10.8159 21.6654V25.7956C10.9378 25.8242 11.1346 25.8242 11.3125 25.8242C12.6053 25.8334 13.4485 25.1218 13.4485 23.6139C13.4577 22.3026 12.6893 21.6094 11.4624 21.6094Z" fill="#4E689A"/>
<path d="M19.6474 0H5.59002C3.53637 0 1.86491 1.67262 1.86491 3.72511V17.4999H1.50108C0.672211 17.4999 0 18.1715 0 19.0011V28.1045C0 28.9341 0.672139 29.6055 1.50108 29.6055H1.86491V31.2748C1.86491 33.3296 3.53637 34.9999 5.59002 34.9999H24.7708C26.8231 34.9999 28.4948 33.3295 28.4948 31.2748V8.81635L19.6474 0ZM3.93795 20.6439C4.37787 20.5696 4.99621 20.5136 5.8674 20.5136C6.74781 20.5136 7.37531 20.6816 7.79693 21.0192C8.19967 21.3373 8.47146 21.8623 8.47146 22.4802C8.47146 23.098 8.26551 23.6232 7.89079 23.979C7.4034 24.4378 6.68262 24.6437 5.83946 24.6437C5.6518 24.6437 5.4836 24.6344 5.35207 24.6162V26.8736H3.93795V20.6439ZM24.7708 32.7186H5.59002C4.79484 32.7186 4.14731 32.0711 4.14731 31.2748V29.6055H22.0277C22.8567 29.6055 23.5288 28.9341 23.5288 28.1045V19.0011C23.5288 18.1715 22.8567 17.4999 22.0277 17.4999H4.14731V3.72511C4.14731 2.93109 4.79491 2.28356 5.59002 2.28356L18.794 2.26977V7.15041C18.794 8.57599 19.9507 9.73378 21.3773 9.73378L26.1585 9.72006L26.2122 31.2747C26.2122 32.0711 25.5659 32.7186 24.7708 32.7186ZM9.3833 26.845V20.6439C9.90779 20.5604 10.5914 20.5136 11.3128 20.5136C12.5118 20.5136 13.2892 20.7286 13.8984 21.1874C14.554 21.6747 14.9658 22.4516 14.9658 23.567C14.9658 24.7752 14.5259 25.6093 13.9167 26.124C13.2519 26.6766 12.2401 26.9387 11.0039 26.9387C10.2636 26.9387 9.73908 26.8918 9.3833 26.845ZM19.6064 23.1736V24.3348H17.3393V26.8736H15.9063V20.5604H19.7653V21.7308H17.3393V23.1736H19.6064Z" fill="#4E689A"/>
</svg>
